<mxfile host="app.diagrams.net" modified="2023-08-31T21:17:48.839Z" agent="Mozilla/5.0 (Macintosh; Intel Mac OS X 10_15_7) AppleWebKit/537.36 (KHTML, like Gecko) Chrome/115.0.0.0 Safari/537.36" etag="AJjyrc4sWL9jX3ubv0UO" version="21.6.8" type="device">
  <diagram name="Page-1" id="_V27b1Zj0y4G6rL_nwT9">
    <mxGraphModel dx="1325" dy="753" grid="1" gridSize="10" guides="1" tooltips="1" connect="1" arrows="1" fold="1" page="1" pageScale="1" pageWidth="850" pageHeight="1100" math="0" shadow="0">
      <root>
        <mxCell id="0" />
        <mxCell id="1" parent="0" />
        <mxCell id="IUOxQA5KwpjiiDE-R_Pi-1" value="OftraConfig" style="swimlane;fontStyle=1;align=center;verticalAlign=top;childLayout=stackLayout;horizontal=1;startSize=26;horizontalStack=0;resizeParent=1;resizeParentMax=0;resizeLast=0;collapsible=1;marginBottom=0;whiteSpace=wrap;html=1;" vertex="1" parent="1">
          <mxGeometry x="40" y="60" width="250" height="280" as="geometry" />
        </mxCell>
        <mxCell id="IUOxQA5KwpjiiDE-R_Pi-2" value="+ settings: Dictionary&lt;br&gt;+ _reader: ConfigReader" style="text;strokeColor=none;fillColor=none;align=left;verticalAlign=top;spacingLeft=4;spacingRight=4;overflow=hidden;rotatable=0;points=[[0,0.5],[1,0.5]];portConstraint=eastwest;whiteSpace=wrap;html=1;" vertex="1" parent="IUOxQA5KwpjiiDE-R_Pi-1">
          <mxGeometry y="26" width="250" height="44" as="geometry" />
        </mxCell>
        <mxCell id="IUOxQA5KwpjiiDE-R_Pi-3" value="" style="line;strokeWidth=1;fillColor=none;align=left;verticalAlign=middle;spacingTop=-1;spacingLeft=3;spacingRight=3;rotatable=0;labelPosition=right;points=[];portConstraint=eastwest;strokeColor=inherit;" vertex="1" parent="IUOxQA5KwpjiiDE-R_Pi-1">
          <mxGeometry y="70" width="250" height="8" as="geometry" />
        </mxCell>
        <mxCell id="IUOxQA5KwpjiiDE-R_Pi-4" value="+ loadDefaults(bool): type&lt;br&gt;+loadFromSystemProperties(bool)&lt;br&gt;+loadEnvProperties(bool)&lt;br&gt;+set(str, str): OftraConfig&lt;br&gt;+set(ConfigEntry, T) : OftraConfig&lt;br&gt;+set(OptionalConfigEntry, T): OftraConfig&lt;br&gt;+setAll(Iterable[String,String]):OftraConfig&lt;br&gt;+&amp;lt;OtherPropertySpecificSetters&amp;gt;&lt;br&gt;+&amp;lt;removeMethods&amp;gt;&lt;br&gt;+&amp;lt;GetterMethods&amp;gt;&lt;br&gt;+Contains&lt;br&gt;+validateSettings()&lt;br&gt;+ _set(str,str, bool): OftraConfig" style="text;strokeColor=none;fillColor=none;align=left;verticalAlign=top;spacingLeft=4;spacingRight=4;overflow=hidden;rotatable=0;points=[[0,0.5],[1,0.5]];portConstraint=eastwest;whiteSpace=wrap;html=1;" vertex="1" parent="IUOxQA5KwpjiiDE-R_Pi-1">
          <mxGeometry y="78" width="250" height="202" as="geometry" />
        </mxCell>
      </root>
    </mxGraphModel>
  </diagram>
</mxfile>
